<svg version="1.1" viewBox="0 0 96.777 43.131" xmlns="http://www.w3.org/2000/svg"><g transform="translate(-53.863 -126.12)"><path d="m59.889 169c-2.2208-0.4742-3.5123-1.5982-3.8921-3.3872-0.11493-0.54142-0.20897-3.3656-0.20897-6.2761v-5.2917l4.101-0.1546v5.5524c0 6.6768-0.16494 6.3761 3.4985 6.3761h2.3224v-11.906h3.9688v15.346l-4.4318-0.0304c-2.4375-0.0167-4.8485-0.1194-5.3578-0.22816zm13.15 0.0644c-0.06379-0.1115-0.1182-0.82116-0.12092-1.577l-0.0049-1.3743 3.3438-3.2859c1.8391-1.8072 3.8498-3.7327 4.4683-4.2789 0.61846-0.54616 1.1245-1.0982 1.1245-1.2268 1e-6 -0.12858-2.0336-0.23379-4.5191-0.23379h-4.5191l0.17472-3.0428h14.288l0.08008 3.0388-4.4718 4.3412c-2.4595 2.3876-4.4718 4.4176-4.4718 4.511s1.9943 0.15444 4.4318 0.13561l4.4318-0.0343v3.0889l-7.0593 0.0704c-3.8826 0.0387-7.1115-0.0208-7.1753-0.13229zm23.325-0.0755c-2.7733-0.46842-5.0636-2.3429-6.0648-4.9635-1.1333-2.9666-0.96803-8.4248 0.33412-11.032 0.83314-1.6683 2.5312-3.2502 4.172-3.8867 1.262-0.48955 2.166-0.58473 6.557-0.69029l5.0932-0.12244v3.7669h-4.3762c-3.8638 0-4.4984 0.0624-5.4204 0.53273-1.0938 0.558-1.8957 1.788-2.1972 3.3699l-0.16387 0.85989h12.158v3.7042h-12.217l0.18123 1.1245c0.2264 1.4047 0.83668 2.493 1.802 3.2135 0.68207 0.50906 1.153 0.56393 5.4901 0.63967l4.744 0.0829v3.6708l-4.4318-0.0311c-2.4375-0.0171-4.9844-0.12446-5.6598-0.23854zm14.06-10.204v-10.474l6.813 0.0969c5.8004 0.0825 6.9698 0.16641 7.8677 0.56483 2.3104 1.0251 3.2993 2.7042 3.2993 5.6021 0 2.823-1.045 4.7095-3.0972 5.5909-0.47294 0.20313-0.85989 0.43944-0.85989 0.52514 0 0.1355 3.6551 6.3261 4.7075 7.973l0.38041 0.59531h-4.9666l-4.487-8.1882-5.424-0.014v8.2021h-4.2333zm12.295-1.8086c1.2239-0.51136 1.7043-1.9747 1.113-3.3899-0.54912-1.3142-1.5698-1.5766-5.7349-1.4743l-3.3073 0.0812-0.1514 5.1594h3.59c2.5056 0 3.862-0.11368 4.4907-0.37637zm9.464 1.8977 0.0692-10.385h13.494l1.4873 0.73041c2.3295 1.144 3.409 3.0504 3.406 6.0147-2e-3 2.1892-0.45188 3.4351-1.6847 4.6679-1.6118 1.6118-3.0202 1.9484-8.1515 1.9484h-4.1853v7.4083h-4.5041zm10.872-0.70468c1.6842-0.27685 2.578-1.162 2.7305-2.7038 0.26225-2.6524-1.0163-3.4036-5.7946-3.4042l-3.3734-4.1e-4v2.9986c0 1.6492 0.0794 3.078 0.17639 3.175 0.24045 0.24046 4.6831 0.19414 6.2612-0.0653zm-79.427-9.0295c-2.1823-0.31272-5.0484-1.8587-6.6065-3.5636-3.3017-3.6126-4.0648-8.3231-2.0583-12.706 0.92161-2.0131 1.8987-3.2118 3.7001-4.5395 3.1402-2.3144 7.5498-2.8441 11.216-1.3472 0.911 0.37201 1.7119 0.58647 1.7798 0.47659s0.95966-0.46866 1.9817-0.79727c4.6054-1.4808 9.7899 0.1862 12.768 4.1054 1.6809 2.2122 2.1735 3.7978 2.1809 7.0192 0.0062 2.6995-0.0266 2.8588-0.9865 4.8008-1.1679 2.3626-3.3454 4.5479-5.59 5.6098-2.7734 1.312-6.578 1.3866-9.3004 0.18239l-1.2501-0.55299-1.7521 0.62429c-2.0684 0.737-4.1205 0.96916-6.082 0.68805zm4.6165-3.4949c0.08872-0.0887-0.2198-0.71523-0.6856-1.3923-1.3424-1.9511-1.9292-3.9021-1.9489-6.4792-0.01998-2.6244 0.48487-4.3679 1.8539-6.4022 0.65828-0.97819 0.83183-1.4356 0.62368-1.6438-0.16459-0.16459-1.2766-0.28681-2.5903-0.28469-1.9772 3e-3 -2.4884 0.10265-3.6248 0.70533-4.738 2.5128-6.2137 8.1722-3.2238 12.363 0.92587 1.2979 2.888 2.7724 4.2464 3.1911 0.86725 0.26732 5.0697 0.22192 5.3494-0.0578zm12.413-0.42196c1.801-0.85339 3.3603-2.4303 4.1948-4.2421 0.82018-1.7808 0.77114-4.9641-0.10444-6.7792-0.80911-1.6774-2.409-3.2842-4.0972-4.1149-1.0912-0.53694-1.7094-0.64744-3.6187-0.64677-1.2665 4.5e-4 -2.4217 0.1198-2.5671 0.26522-0.17613 0.17613 0.03037 0.70579 0.61861 1.5867 1.4022 2.0997 1.8344 3.6246 1.8373 6.4817 0.0029 2.8017-0.43722 4.281-1.9107 6.4226-0.45916 0.66737-0.83484 1.273-0.83484 1.3458 0 0.21828 1.0815 0.35957 3.0427 0.39752 1.5331 0.0297 2.1255-0.0937 3.4396-0.7164zm-7.3804-4.9849c0.76673-2.5476 0.19959-5.7639-1.3444-7.624l-0.65885-0.79374-0.52822 0.66146c-2.289 2.8664-2.3989 7.0797-0.26174 10.03l0.82054 1.1327 0.80187-1.0904c0.44103-0.59971 0.96787-1.642 1.1708-2.3161z" stroke-width=".26458"/></g></svg>
